<?xml version="1.0" standalone="no"?><!DOCTYPE svg PUBLIC "-//W3C//DTD SVG 1.1//EN" "http://www.w3.org/Graphics/SVG/1.1/DTD/svg11.dtd"><svg t="1571841414674" class="icon" viewBox="0 0 1024 1024" version="1.1" xmlns="http://www.w3.org/2000/svg" p-id="2517" width="32" height="32" xmlns:xlink="http://www.w3.org/1999/xlink"><defs><style type="text/css"></style></defs><path d="M255.211346 268.625572v19.069801h549.983292V238.074103s35.354445-12.675307 63.262857-25.379035c49.109711-25.379035 63.234437-76.563404 42.431018-76.563404a755.488107 755.488107 0 0 1-78.581222-25.379034c-49.109711-21.059199-176.004885-104.358136-210.307791-110.83789h-176.772223c-42.061558 12.675307-126.895174 89.636591-196.438845 108.706392-63.234437 12.675307-91.540729 19.041381-91.540729 19.041381-14.209986 12.675307 7.076573 44.818295 28.419972 63.859676A332.257889 332.257889 0 0 0 255.978685 223.665177v44.818296h-0.795759z m316.655324-140.42308l-35.382864-12.703727-35.354445 19.041381 7.076573-32.142988-28.419972-25.379035 35.354445-6.337653 14.522605-30.94935 21.229719 32.114568 42.033138 6.366074-28.419971 19.041381zM268.568732 326.176015c14.209986 268.568732 133.573867 370.539591 133.573867 370.539591h253.392468c112.742028-102.311898 140.62202-370.539591 140.62202-370.539591 0-6.366074-527.986234 0-527.986234 0h0.397879z m359.057923 332.513669h-196.410425a391.99667 391.99667 0 0 1-91.540728-255.495546l28.419971 6.337654 7.076573 70.22575h126.895174l21.201299-39.78796h35.382865l14.209985 39.78796h112.457828l28.419972-76.563404 14.209986-6.337653s-7.076573 166.228414-98.588882 261.833199h-1.733618z m-168.502012 253.904027s14.209986 0 35.326024-57.522023a176.971164 176.971164 0 0 0 14.209986-61.500818h-35.354444l28.419971-57.522023h70.33943l28.419972 51.155949H565.131137s-7.076573 96.002664 42.431018 115.044045c0 0 35.354445 39.78796 112.742028-172.566068h35.354444s140.62202 102.311898 196.410425 115.044046v179.045821H72.158308v-167.422053a572.17929 572.17929 0 0 0 218.009603-115.044045h42.431018c7.076573 0 63.262857 172.566068 126.525714 172.566068v-1.193639z m0 0" fill="#F18000" p-id="2518"></path></svg>